<?xml version="1.0" encoding="UTF-8"?><svg version="1.1" viewBox="0 -48.875 34 26" xmlns="http://www.w3.org/2000/svg" xmlns:xlink="http://www.w3.org/1999/xlink"><path d="M11.7857-36.4286c-1.77455 0-3.28962-.627791-4.5452-1.88337 -1.25558-1.25558-1.88337-2.77065-1.88337-4.5452 0-1.77455.62779-3.28962 1.88337-4.5452 1.25558-1.25558 2.77065-1.88337 4.5452-1.88337 1.77455 0 3.28962.62779 4.5452 1.88337 1.25558 1.25558 1.88337 2.77065 1.88337 4.5452 0 1.77455-.62779 3.28962-1.88337 4.5452 -1.25558 1.25558-2.77065 1.88337-4.5452 1.88337Zm16.0714 2.14286h5.89286c.145089 0 .270647.053013.376674.15904 .106027.106027.15904.231585.15904.376674v3.21429c0 .145089-.053013.270647-.15904.376674 -.106027.106027-.231585.15904-.376674.15904h-5.89286v5.89286c0 .145089-.053014.270647-.15904.376674 -.106027.106027-.231585.15904-.376674.15904h-3.21429c-.145089 0-.270647-.053013-.376674-.15904 -.106027-.106027-.15904-.231585-.15904-.376674v-5.89286h-5.89286c-.145089 0-.270647-.053013-.376674-.15904 -.106026-.106027-.15904-.231585-.15904-.376674v-3.21429c0-.145089.053014-.270647.15904-.376674 .106027-.106027.231585-.15904.376674-.15904h5.89286v-5.89286c0-.14509.053013-.270648.15904-.376675 .106027-.106026.231585-.15904.376674-.15904h3.21429c.145089 0 .270647.053014.376674.15904 .106026.106027.15904.231585.15904.376675Zm-12.3214 3.75c0 .580357.212054 1.08259.636161 1.5067 .424107.424107.926339.636161 1.5067.636161h4.28571v3.98438c-.758929.558036-1.71317.837053-2.86272.837053h-14.6317c-1.35045 0-2.43304-.385044-3.24777-1.15513 -.814732-.77009-1.2221-1.83036-1.2221-3.1808 0-.591518.019531-1.16909.058594-1.7327 .039062-.563616.117187-1.17188.234375-1.82478 .117187-.652902.265067-1.25837.443638-1.81641 .178572-.558036.418527-1.10212.719866-1.63225 .301339-.530134.647322-.982143 1.03795-1.35603 .390625-.373884.867745-.672433 1.43136-.895648 .563616-.223214 1.18583-.334821 1.86663-.334821 .212053 0 .429687.094866.652901.284598 .881697.680804 1.74386 1.19141 2.5865 1.53181 .842634.340402 1.7606.510603 2.75391.510603 .993304 0 1.91127-.170201 2.75391-.510603 .842633-.340402 1.7048-.851004 2.5865-1.53181 .223214-.189732.440848-.284598.652902-.284598 1.47321 0 2.68415.535714 3.63281 1.60714h-3.73326c-.580357 0-1.08259.212053-1.5067.636161 -.424107.424107-.636161.926339-.636161 1.5067Z" transform="matrix(.991667 0 0 .991667 0 .25)" fill="#000"></path></svg>