<?xml version="1.0" encoding="UTF-8"?><svg version="1.1" viewBox="0 -55.7143 30 30" xmlns="http://www.w3.org/2000/svg" xmlns:xlink="http://www.w3.org/1999/xlink"><path d="M30-32.1429v6.42857h-30v-6.42857c.502232 0 .976562-.078125 1.42299-.234375 .446429-.15625.77567-.30971.987723-.46038 .212054-.150669.474331-.359933.786831-.62779 .334821-.301339.622209-.513393.862165-.63616 .239955-.122768.555245-.184152.94587-.184152 .267858 0 .513393.039062.736608.117187 .223214.078125.396205.161831.518973.251116 .122768.089286.306919.239956.552455.452009 .323661.279018.585938.491072.78683.636161 .200893.145089.524554.295759.970983.452009 .446428.15625.926339.234375 1.43973.234375 .502232 0 .976562-.080915 1.42299-.242746 .446428-.16183.770089-.3125.970982-.452009 .200893-.139509.46875-.348772.803571-.62779 .234375-.212053.415737-.362723.544085-.452009 .128348-.089285.301339-.172991.518973-.251116 .217634-.078125.46038-.117187.728237-.117187 .390625 0 .705915.061384.945871.184152 .239955.122767.527343.334821.862165.63616 .3125.267857.574776.477121.78683.62779 .212054.15067.541295.30413.987723.46038 .446429.15625.920759.234375 1.42299.234375 .502232 0 .976563-.078125 1.42299-.234375 .446429-.15625.77567-.30971.987724-.46038 .212053-.150669.47433-.359933.78683-.62779 .334821-.301339.62221-.513393.862165-.63616 .239956-.122768.555246-.184152.945871-.184152 .379464 0 .689174.061384.929129.184152 .239956.122767.527344.334821.862165.63616 .3125.267857.574777.477121.786831.62779 .212053.15067.541294.30413.987723.46038 .446429.15625.920759.234375 1.42299.234375Zm0-5.35714v3.21429c-.267857 0-.513393-.039063-.736607-.117188 -.223214-.078125-.396205-.16183-.518973-.251116 -.122768-.089286-.30692-.239955-.552456-.452009 -.32366-.279018-.585937-.491071-.78683-.636161 -.200893-.145089-.524554-.295758-.970982-.452008 -.446429-.15625-.920759-.234375-1.42299-.234375 -.513393 0-.993304.078125-1.43973.234375 -.446429.15625-.77009.306919-.970983.452008 -.200892.14509-.463169.357143-.78683.636161 -.245536.212054-.429687.362723-.552455.452009 -.122768.089286-.295759.172991-.518973.251116 -.223215.078125-.46875.117188-.736608.117188 -.390625 0-.705915-.061384-.94587-.184152 -.239956-.122768-.527344-.334822-.862165-.636161 -.323661-.279018-.585938-.491071-.786831-.636161 -.200893-.145089-.524553-.295758-.970982-.452008 -.446428-.15625-.926339-.234375-1.43973-.234375 -.502232 0-.976562.080915-1.42299.242745 -.446429.16183-.770089.3125-.970982.452009 -.200893.139509-.46875.348772-.803572.62779 -.234375.212054-.415736.362723-.544084.452009 -.128349.089286-.30134.172991-.518974.251116 -.217634.078125-.460379.117188-.728236.117188 -.390625 0-.705915-.061384-.945871-.184152 -.239955-.122768-.527344-.334822-.862165-.636161 -.3125-.267857-.574777-.47712-.78683-.62779 -.212054-.15067-.541295-.304129-.987724-.460379 -.446428-.15625-.920759-.234375-1.42299-.234375 -.513392 0-.993303.078125-1.43973.234375 -.446428.15625-.770089.306919-.970982.452008 -.200893.14509-.46317.357143-.78683.636161 -.334822.301339-.62221.513393-.862165.636161 -.239956.122768-.555246.184152-.945871.184152v-3.21429c0-.892857.3125-1.65179.9375-2.27679 .625-.625 1.38393-.9375 2.27679-.9375h1.07143v-7.5h4.28572v7.5h4.28571v-7.5h4.28571v7.5h4.28571v-7.5h4.28572v7.5h1.07143c.892857 0 1.65179.3125 2.27679.9375 .625.625.9375 1.38393.9375 2.27679Zm-21.4286-14.4643c-1.77636e-15.859375-.200893 1.52065-.602679 1.98382 -.401786.46317-.915179.694755-1.54018.694755 -.591517 0-1.09654-.209264-1.51507-.62779 -.418526-.418527-.62779-.92355-.62779-1.51507 0-.323661.053014-.608259.15904-.853795 .106027-.245536.237166-.435268.393416-.569196 .15625-.133929.329241-.290179.518973-.46875 .189732-.178572.362723-.354353.518973-.527344 .15625-.172991.287388-.421317.393415-.744978 .106027-.323661.15904-.697545.15904-1.12165 .424108 0 .887277.412947 1.38951 1.23884 .502232.825892.753349 1.66295.753349 2.51116Zm8.57143 0c0 .859375-.200893 1.52065-.602678 1.98382 -.401786.46317-.915179.694755-1.54018.694755 -.591518 0-1.09654-.209264-1.51507-.62779 -.418527-.418527-.62779-.92355-.62779-1.51507 0-.323661.053013-.608259.15904-.853795 .106027-.245536.237165-.435268.393415-.569196 .15625-.133929.329241-.290179.518973-.46875 .189733-.178572.362724-.354353.518974-.527344 .15625-.172991.287388-.421317.393415-.744978 .106027-.323661.15904-.697545.15904-1.12165 .424107 0 .887277.412947 1.38951 1.23884 .502232.825892.753348 1.66295.753348 2.51116Zm8.57143 0c0 .859375-.200893 1.52065-.602679 1.98382 -.401786.46317-.915178.694755-1.54018.694755 -.591518 0-1.09654-.209264-1.51507-.62779 -.418527-.418527-.627791-.92355-.627791-1.51507 0-.323661.053014-.608259.159041-.853795 .106026-.245536.237165-.435268.393415-.569196 .15625-.133929.329241-.290179.518973-.46875 .189732-.178572.362723-.354353.518973-.527344 .15625-.172991.287389-.421317.393415-.744978 .106027-.323661.159041-.697545.159041-1.12165 .424107 0 .887276.412947 1.38951 1.23884 .502232.825892.753348 1.66295.753348 2.51116Z" fill="#000"></path></svg>