<?xml version="1.0" encoding="UTF-8"?><svg version="1.1" viewBox="0 0 30 30" xmlns="http://www.w3.org/2000/svg" xmlns:xlink="http://www.w3.org/1999/xlink"><path d="M27.493 5h-24.986c-1.378 0-2.5 1.122-2.5 2.5v15c0 1.378 1.122 2.5 2.5 2.5h24.987c1.378 0 2.5-1.122 2.5-2.5v-15c-.001-1.378-1.123-2.5-2.501-2.5Zm-16.674 10.879l-7 6c-.094.081-.211.121-.326.121 -.141 0-.281-.059-.379-.175 -.18-.209-.156-.525.054-.705l7-6c.21-.179.525-.156.705.054 .18.21.156.526-.054.705Zm3.927.119c-.731 0-1.465-.195-2.036-.585l-9.5-6.5c-.228-.156-.286-.467-.13-.695 .156-.229.466-.287.695-.13l9.5 6.5c.811.555 2.127.554 2.936 0l10.01-6.507c.231-.15.542-.085.692.147 .15.232.085.541-.147.692l-10 6.5c-.564.385-1.291.578-2.02.578Zm12.127 5.827c-.098.116-.239.175-.38.175 -.115 0-.231-.04-.325-.121l-7-6c-.21-.18-.234-.495-.054-.705 .18-.21.497-.233.705-.054l7 6c.21.18.234.496.054.705Z" fill="#000"></path></svg>