<?xml version="1.0" encoding="UTF-8"?><svg version="1.1" viewBox="0 0 32 32" xmlns="http://www.w3.org/2000/svg" xmlns:xlink="http://www.w3.org/1999/xlink"><path d="M15 3c-1.64453 0-3 1.35547-3 3l.015625-.164062 -.984375 5.91016 -1.89062 5.17188c-.035156.046875-.078125.082031-.140625.082031h-1v-1h-5v13h5v-3h3.92578c1.64453 0 3.125-.796875 4.07422-2.03516 .949219 1.23828 2.42969 2.03516 4.07422 2.03516h3.92578v3h5v-13h-5v1h-1c-.0625 0-.105469-.035156-.140625-.082031l-1.89063-5.17188 -.984375-5.91016 .015625.164062c0-1.64453-1.35547-3-3-3 -.339844 0-.6875.066406-1 .226563 -.3125-.160157-.660156-.226563-1-.226563Zm-.035156 2.01562c.019531.144531.035156.472656.035156.984375v15.4375c-.277344 1.48438-1.55469 2.5625-3.07422 2.5625h-3.92578v-5h1c.785156 0 1.51562-.425781 1.90234-1.10938l.039062-.074219 2.02734-5.5625 1.03125-6.17188v-.082031c0-.550781.421875-.964844.964844-.984375Zm2.07031 0c.542969.019531.964844.433594.964844.984375v.082031l1.03125 6.17188 2.02734 5.5625 .039062.074219c.386719.683594 1.11719 1.10938 1.90234 1.10938h1v5h-3.92578c-1.51953 0-2.79688-1.07812-3.07422-2.5625v-15.4375c0-.511719.015625-.839844.035156-.984375Zm-12.0352 12.9844h1v9h-1Zm21 0h1v9h-1Z" fill="#000"></path></svg>