<?xml version="1.0" encoding="UTF-8"?><svg version="1.1" viewBox="0 0 24 24" xmlns="http://www.w3.org/2000/svg" xmlns:xlink="http://www.w3.org/1999/xlink"><g fill="#000"><path d="M23.431 10.524c-2.644-2.91-7.031-5.986-11.431-5.924 -4.4-.063-8.787 3.015-11.432 5.924l2.07304e-09-2.31773e-09c-.750691.839298-.750691 2.1087-4.14608e-09 2.948 2.613 2.879 6.939 5.928 11.271 5.928h.308c4.347 0 8.671-3.049 11.287-5.929l-5.58022e-09 6.25039e-09c.749696-.839733.748404-2.10879-.00299999-2.947Zm-16.031 1.476l4.9738e-14-6.94581e-07c3.83606e-07-2.54051 2.05949-4.6 4.6-4.6 2.54051 3.83606e-07 4.6 2.05949 4.6 4.6 -3.83606e-07 2.54051-2.05949 4.6-4.6 4.6l-5.48544e-08-1.06581e-14c-2.54051-4.13902e-07-4.6-2.05949-4.6-4.6Z"></path><circle cx="12" cy="12" r="2"></circle></g></svg>